<?xml version="1.0" encoding="UTF-8" standalone="no"?>
<!DOCTYPE svg PUBLIC "-//W3C//DTD SVG 1.1//EN"
 "http://www.w3.org/Graphics/SVG/1.1/DTD/svg11.dtd">
<!-- Generated by graphviz version 2.43.0 (0)
 -->
<!-- Title: benchmark Pages: 1 -->
<svg width="1459pt" height="1036pt"
 viewBox="0.00 0.00 1458.96 1036.00" xmlns="http://www.w3.org/2000/svg" xmlns:xlink="http://www.w3.org/1999/xlink">
<g id="graph0" class="graph" transform="scale(1 1) rotate(0) translate(4 1032)">
<title>benchmark</title>
<polygon fill="white" stroke="transparent" points="-4,4 -4,-1032 1454.96,-1032 1454.96,4 -4,4"/>
<g id="clust1" class="cluster">
<title>cluster_p0</title>
<path fill="white" stroke="#c8d6de" stroke-width="1.2" d="M131,-846C131,-846 370,-846 370,-846 376,-846 382,-852 382,-858 382,-858 382,-1008 382,-1008 382,-1014 376,-1020 370,-1020 370,-1020 131,-1020 131,-1020 125,-1020 119,-1014 119,-1008 119,-1008 119,-858 119,-858 119,-852 125,-846 131,-846"/>
<text text-anchor="middle" x="250.5" y="-1007.2" font-family="Helvetica,sans-Serif" font-weight="bold" font-size="11.00" fill="#1a4a5e"> &#160;PHASE 0 · Database scope — no sequencing &#160;</text>
</g>
<g id="clust2" class="cluster">
<title>cluster_p1</title>
<path fill="white" stroke="#c8d6de" stroke-width="1.2" d="M20,-746C20,-746 476,-746 476,-746 482,-746 488,-752 488,-758 488,-758 488,-815 488,-815 488,-821 482,-827 476,-827 476,-827 20,-827 20,-827 14,-827 8,-821 8,-815 8,-815 8,-758 8,-758 8,-752 14,-746 20,-746"/>
<text text-anchor="middle" x="183" y="-814.2" font-family="Helvetica,sans-Serif" font-weight="bold" font-size="11.00" fill="#1a4a5e"> &#160;PHASE 1 · Community design — stratified by phylum, seeded &#160;</text>
</g>
<g id="clust3" class="cluster">
<title>cluster_p2</title>
<path fill="white" stroke="#c8d6de" stroke-width="1.2" d="M35,-465.5C35,-465.5 451,-465.5 451,-465.5 457,-465.5 463,-471.5 463,-477.5 463,-477.5 463,-715 463,-715 463,-721 457,-727 451,-727 451,-727 35,-727 35,-727 29,-727 23,-721 23,-715 23,-715 23,-477.5 23,-477.5 23,-471.5 29,-465.5 35,-465.5"/>
<text text-anchor="middle" x="107.5" y="-714.2" font-family="Helvetica,sans-Serif" font-weight="bold" font-size="11.00" fill="#1a4a5e"> &#160;PHASE 2 · Data generation &#160;</text>
</g>
<g id="clust4" class="cluster">
<title>cluster_p3</title>
<path fill="white" stroke="#c8d6de" stroke-width="1.2" d="M417,-268C417,-268 961,-268 961,-268 967,-268 973,-274 973,-280 973,-280 973,-420 973,-420 973,-426 967,-432 961,-432 961,-432 417,-432 417,-432 411,-432 405,-426 405,-420 405,-420 405,-280 405,-280 405,-274 411,-268 417,-268"/>
<text text-anchor="middle" x="575.5" y="-419.2" font-family="Helvetica,sans-Serif" font-weight="bold" font-size="11.00" fill="#1a4a5e"> &#160;PHASE 3 · Execution under measurement — /usr/bin/time &#45;v &#160;</text>
</g>
<g id="clust5" class="cluster">
<title>cluster_p5</title>
<path fill="white" stroke="#c8d6de" stroke-width="1.2" d="M748,-65C748,-65 1401,-65 1401,-65 1407,-65 1413,-71 1413,-77 1413,-77 1413,-227 1413,-227 1413,-233 1407,-239 1401,-239 1401,-239 748,-239 748,-239 742,-239 736,-233 736,-227 736,-227 736,-77 736,-77 736,-71 742,-65 748,-65"/>
<text text-anchor="middle" x="806.5" y="-226.2" font-family="Helvetica,sans-Serif" font-weight="bold" font-size="11.00" fill="#1a4a5e"> &#160;PHASE 5 · Evaluation &#160;</text>
</g>
<!-- census -->
<g id="node1" class="node">
<title>census</title>
<path fill="#dbe8ee" stroke="#9db8c6" stroke-width="1.1" d="M314,-992C314,-992 186,-992 186,-992 180,-992 174,-986 174,-980 174,-980 174,-959 174,-959 174,-953 180,-947 186,-947 186,-947 314,-947 314,-947 320,-947 326,-953 326,-959 326,-959 326,-980 326,-980 326,-986 320,-992 314,-992"/>
<text text-anchor="middle" x="250" y="-978" font-family="Helvetica,sans-Serif" font-size="10.00">check_representation.py</text>
<text text-anchor="middle" x="250" y="-967" font-family="Helvetica,sans-Serif" font-size="10.00">30,209 type&#45;material genomes</text>
<text text-anchor="middle" x="250" y="-956" font-family="Helvetica,sans-Serif" font-size="10.00">× Kraken2 / MetaPhlAn4</text>
</g>
<!-- twoway -->
<g id="node2" class="node">
<title>twoway</title>
<path fill="#2a6f8f" stroke="#1a4a5e" stroke-width="1.1" d="M350,-910C350,-910 150,-910 150,-910 144,-910 138,-904 138,-898 138,-898 138,-866 138,-866 138,-860 144,-854 150,-854 150,-854 350,-854 350,-854 356,-854 362,-860 362,-866 362,-866 362,-898 362,-898 362,-904 356,-910 350,-910"/>
<text text-anchor="middle" x="250" y="-896" font-family="Helvetica,sans-Serif" font-size="10.00" fill="white">Two&#45;way comparison</text>
<text text-anchor="middle" x="250" y="-885" font-family="Helvetica,sans-Serif" font-size="10.00" fill="white">6,503 species in BOTH</text>
<text text-anchor="middle" x="250" y="-874" font-family="Helvetica,sans-Serif" font-size="10.00" fill="white">60.5 % of type material absent from Kraken2</text>
<text text-anchor="middle" x="250" y="-863" font-family="Helvetica,sans-Serif" font-size="10.00" fill="white">84 % of Kraken2&#45;only prokaryotes undescribed</text>
</g>
<!-- census&#45;&gt;twoway -->
<g id="edge1" class="edge">
<title>census&#45;&gt;twoway</title>
<path fill="none" stroke="#7a8f9b" stroke-width="1.1" d="M250,-946.92C250,-937.93 250,-927.26 250,-917.24"/>
<polygon fill="#7a8f9b" stroke="#7a8f9b" stroke-width="1.1" points="252.45,-917.09 250,-910.09 247.55,-917.09 252.45,-917.09"/>
</g>
<!-- ref -->
<g id="node3" class="node">
<title>ref</title>
<path fill="#eef4f7" stroke="#9db8c6" stroke-width="1.1" d="M468,-799C468,-799 352,-799 352,-799 346,-799 340,-793 340,-787 340,-787 340,-766 340,-766 340,-760 346,-754 352,-754 352,-754 468,-754 468,-754 474,-754 480,-760 480,-766 480,-766 480,-787 480,-787 480,-793 474,-799 468,-799"/>
<text text-anchor="middle" x="410" y="-785" font-family="Helvetica,sans-Serif" font-size="10.00">10 REFERENCE</text>
<text text-anchor="middle" x="410" y="-774" font-family="Helvetica,sans-Serif" font-size="10.00">from 10,116 present in both</text>
<text text-anchor="middle" x="410" y="-763" font-family="Helvetica,sans-Serif" font-size="10.00">(positive control)</text>
</g>
<!-- twoway&#45;&gt;ref -->
<g id="edge12" class="edge">
<title>twoway&#45;&gt;ref</title>
<path fill="none" stroke="#7a8f9b" stroke-width="1.1" d="M304.11,-846C325.91,-831.89 350.6,-815.93 370.64,-802.96"/>
<polygon fill="#7a8f9b" stroke="#7a8f9b" stroke-width="1.1" points="372.01,-804.99 376.56,-799.13 369.35,-800.88 372.01,-804.99"/>
</g>
<!-- conf -->
<g id="node4" class="node">
<title>conf</title>
<path fill="#eef4f7" stroke="#9db8c6" stroke-width="1.1" d="M148,-799C148,-799 28,-799 28,-799 22,-799 16,-793 16,-787 16,-787 16,-766 16,-766 16,-760 22,-754 28,-754 28,-754 148,-754 148,-754 154,-754 160,-760 160,-766 160,-766 160,-787 160,-787 160,-793 154,-799 148,-799"/>
<text text-anchor="middle" x="88" y="-785" font-family="Helvetica,sans-Serif" font-size="10.00">10 CONFLICTIVE</text>
<text text-anchor="middle" x="88" y="-774" font-family="Helvetica,sans-Serif" font-size="10.00">from 3,640 absent from both</text>
<text text-anchor="middle" x="88" y="-763" font-family="Helvetica,sans-Serif" font-size="10.00">(coverage experiment)</text>
</g>
<!-- twoway&#45;&gt;conf -->
<g id="edge13" class="edge">
<title>twoway&#45;&gt;conf</title>
<path fill="none" stroke="#7a8f9b" stroke-width="1.1" d="M207.44,-853.81C182.81,-838.07 152,-818.39 127.85,-802.96"/>
<polygon fill="#7a8f9b" stroke="#7a8f9b" stroke-width="1.1" points="129.08,-800.84 121.86,-799.13 126.44,-804.97 129.08,-800.84"/>
</g>
<!-- mirr -->
<g id="node5" class="node">
<title>mirr</title>
<path fill="#eef4f7" stroke="#9db8c6" stroke-width="1.1" d="M309.5,-799C309.5,-799 190.5,-799 190.5,-799 184.5,-799 178.5,-793 178.5,-787 178.5,-787 178.5,-766 178.5,-766 178.5,-760 184.5,-754 190.5,-754 190.5,-754 309.5,-754 309.5,-754 315.5,-754 321.5,-760 321.5,-766 321.5,-766 321.5,-787 321.5,-787 321.5,-793 315.5,-799 309.5,-799"/>
<text text-anchor="middle" x="250" y="-785" font-family="Helvetica,sans-Serif" font-size="10.00">10 MIRROR</text>
<text text-anchor="middle" x="250" y="-774" font-family="Helvetica,sans-Serif" font-size="10.00">from 10,973 in Kraken2 only</text>
<text text-anchor="middle" x="250" y="-763" font-family="Helvetica,sans-Serif" font-size="10.00">(out&#45;of&#45;domain failure mode)</text>
</g>
<!-- twoway&#45;&gt;mirr -->
<g id="edge14" class="edge">
<title>twoway&#45;&gt;mirr</title>
<path fill="none" stroke="#7a8f9b" stroke-width="1.1" d="M250,-853.81C250,-839.19 250,-821.17 250,-806.31"/>
<polygon fill="#7a8f9b" stroke="#7a8f9b" stroke-width="1.1" points="252.45,-806.3 250,-799.3 247.55,-806.3 252.45,-806.3"/>
</g>
<!-- tables -->
<g id="node23" class="node">
<title>tables</title>
<path fill="#e8eff3" stroke="#2a6f8f" stroke-width="1.6" d="M968.5,-36C968.5,-36 857.5,-36 857.5,-36 851.5,-36 845.5,-30 845.5,-24 845.5,-24 845.5,-12 845.5,-12 845.5,-6 851.5,0 857.5,0 857.5,0 968.5,0 968.5,0 974.5,0 980.5,-6 980.5,-12 980.5,-12 980.5,-24 980.5,-24 980.5,-30 974.5,-36 968.5,-36"/>
<text text-anchor="middle" x="913" y="-21" font-family="Helvetica,sans-Serif" font-size="10.00">results_table_template.md</text>
<text text-anchor="middle" x="913" y="-10" font-family="Helvetica,sans-Serif" font-size="10.00">Tables 1–7</text>
</g>
<!-- twoway&#45;&gt;tables -->
<g id="edge34" class="edge">
<title>twoway&#45;&gt;tables</title>
<path fill="none" stroke="#7a8f9b" stroke-width="1.1" stroke-dasharray="1,5" d="M362.18,-869.35C417.08,-861.12 474.98,-847.76 492,-827 542.94,-764.86 444.56,-523.66 500,-465.5 536.66,-427.04 924.99,-442.84 977,-432 1186.05,-388.42 1314.38,-426.27 1417,-239 1454.16,-171.18 1469.14,-122.11 1417,-65 1388.65,-33.94 1120.83,-23.61 987.56,-20.38"/>
<polygon fill="#7a8f9b" stroke="#7a8f9b" stroke-width="1.1" points="987.6,-17.93 980.54,-20.21 987.48,-22.82 987.6,-17.93"/>
<text text-anchor="middle" x="698.5" y="-442.8" font-family="Times,serif" font-size="9.00" fill="#1a4a5e"> &#160;stands alone</text>
</g>
<!-- vec -->
<g id="node6" class="node">
<title>vec</title>
<path fill="#dbe8ee" stroke="#9db8c6" stroke-width="1.1" d="M320.5,-699C320.5,-699 179.5,-699 179.5,-699 173.5,-699 167.5,-693 167.5,-687 167.5,-687 167.5,-655 167.5,-655 167.5,-649 173.5,-643 179.5,-643 179.5,-643 320.5,-643 320.5,-643 326.5,-643 332.5,-649 332.5,-655 332.5,-655 332.5,-687 332.5,-687 332.5,-693 326.5,-699 320.5,-699"/>
<text text-anchor="middle" x="250" y="-685" font-family="Helvetica,sans-Serif" font-size="10.00">make_abundance.py</text>
<text text-anchor="middle" x="250" y="-674" font-family="Helvetica,sans-Serif" font-size="10.00">FIXED per&#45;contig vector</text>
<text text-anchor="middle" x="250" y="-663" font-family="Helvetica,sans-Serif" font-size="10.00">(iss &#45;&#45;abundance is per&#45;CONTIG:</text>
<text text-anchor="middle" x="250" y="-652" font-family="Helvetica,sans-Serif" font-size="10.00">unusable with draft genomes)</text>
</g>
<!-- ref&#45;&gt;vec -->
<g id="edge15" class="edge">
<title>ref&#45;&gt;vec</title>
<path fill="none" stroke="#7a8f9b" stroke-width="1.1" d="M376.46,-753.8C353.64,-739.04 323.1,-719.29 297.75,-702.89"/>
<polygon fill="#7a8f9b" stroke="#7a8f9b" stroke-width="1.1" points="298.97,-700.76 291.76,-699.01 296.31,-704.87 298.97,-700.76"/>
</g>
<!-- conf&#45;&gt;vec -->
<g id="edge16" class="edge">
<title>conf&#45;&gt;vec</title>
<path fill="none" stroke="#7a8f9b" stroke-width="1.1" d="M121.96,-753.8C145.07,-739.04 175.99,-719.29 201.65,-702.89"/>
<polygon fill="#7a8f9b" stroke="#7a8f9b" stroke-width="1.1" points="203.14,-704.85 207.72,-699.01 200.5,-700.72 203.14,-704.85"/>
</g>
<!-- mirr&#45;&gt;vec -->
<g id="edge17" class="edge">
<title>mirr&#45;&gt;vec</title>
<path fill="none" stroke="#7a8f9b" stroke-width="1.1" d="M250,-753.8C250,-740.03 250,-721.9 250,-706.22"/>
<polygon fill="#7a8f9b" stroke="#7a8f9b" stroke-width="1.1" points="252.45,-706.2 250,-699.2 247.55,-706.2 252.45,-706.2"/>
</g>
<!-- unev -->
<g id="node7" class="node">
<title>unev</title>
<path fill="#eef4f7" stroke="#9db8c6" stroke-width="1.1" d="M442.5,-606C442.5,-606 337.5,-606 337.5,-606 331.5,-606 325.5,-600 325.5,-594 325.5,-594 325.5,-573 325.5,-573 325.5,-567 331.5,-561 337.5,-561 337.5,-561 442.5,-561 442.5,-561 448.5,-561 454.5,-567 454.5,-573 454.5,-573 454.5,-594 454.5,-594 454.5,-600 448.5,-606 442.5,-606"/>
<text text-anchor="middle" x="390" y="-592" font-family="Helvetica,sans-Serif" font-size="10.00">Uneven, 20× range</text>
<text text-anchor="middle" x="390" y="-581" font-family="Helvetica,sans-Serif" font-size="10.00">3 M · 10 M · 30 M reads</text>
<text text-anchor="middle" x="390" y="-570" font-family="Helvetica,sans-Serif" font-size="10.00">depth is the only variable</text>
</g>
<!-- vec&#45;&gt;unev -->
<g id="edge2" class="edge">
<title>vec&#45;&gt;unev</title>
<path fill="none" stroke="#7a8f9b" stroke-width="1.1" d="M294.3,-642.95C311.56,-632.4 331.25,-620.38 348.26,-609.99"/>
<polygon fill="#7a8f9b" stroke="#7a8f9b" stroke-width="1.1" points="349.7,-611.98 354.4,-606.24 347.15,-607.8 349.7,-611.98"/>
</g>
<!-- eqcov -->
<g id="node8" class="node">
<title>eqcov</title>
<path fill="#eef4f7" stroke="#9db8c6" stroke-width="1.1" d="M163,-606C163,-606 43,-606 43,-606 37,-606 31,-600 31,-594 31,-594 31,-573 31,-573 31,-567 37,-561 43,-561 43,-561 163,-561 163,-561 169,-561 175,-567 175,-573 175,-573 175,-594 175,-594 175,-600 169,-606 163,-606"/>
<text text-anchor="middle" x="103" y="-592" font-family="Helvetica,sans-Serif" font-size="10.00">Equal coverage 38.8×</text>
<text text-anchor="middle" x="103" y="-581" font-family="Helvetica,sans-Serif" font-size="10.00">30 M reads</text>
<text text-anchor="middle" x="103" y="-570" font-family="Helvetica,sans-Serif" font-size="10.00">coverage removed as a limit</text>
</g>
<!-- vec&#45;&gt;eqcov -->
<g id="edge3" class="edge">
<title>vec&#45;&gt;eqcov</title>
<path fill="none" stroke="#7a8f9b" stroke-width="1.1" d="M203.49,-642.95C185.36,-632.4 164.69,-620.38 146.82,-609.99"/>
<polygon fill="#7a8f9b" stroke="#7a8f9b" stroke-width="1.1" points="147.66,-607.64 140.38,-606.24 145.2,-611.88 147.66,-607.64"/>
</g>
<!-- mmock -->
<g id="node9" class="node">
<title>mmock</title>
<path fill="#eef4f7" stroke="#9db8c6" stroke-width="1.1" d="M295,-606C295,-606 205,-606 205,-606 199,-606 193,-600 193,-594 193,-594 193,-573 193,-573 193,-567 199,-561 205,-561 205,-561 295,-561 295,-561 301,-561 307,-567 307,-573 307,-573 307,-594 307,-594 307,-600 301,-606 295,-606"/>
<text text-anchor="middle" x="250" y="-592" font-family="Helvetica,sans-Serif" font-size="10.00">Mirror mock</text>
<text text-anchor="middle" x="250" y="-581" font-family="Helvetica,sans-Serif" font-size="10.00">equal coverage 37.5×</text>
<text text-anchor="middle" x="250" y="-570" font-family="Helvetica,sans-Serif" font-size="10.00">15 M reads</text>
</g>
<!-- vec&#45;&gt;mmock -->
<g id="edge4" class="edge">
<title>vec&#45;&gt;mmock</title>
<path fill="none" stroke="#7a8f9b" stroke-width="1.1" d="M250,-642.95C250,-633.51 250,-622.89 250,-613.32"/>
<polygon fill="#7a8f9b" stroke="#7a8f9b" stroke-width="1.1" points="252.45,-613.24 250,-606.24 247.55,-613.24 252.45,-613.24"/>
</g>
<!-- asm -->
<g id="node10" class="node">
<title>asm</title>
<path fill="#dbe8ee" stroke="#9db8c6" stroke-width="1.1" d="M372,-518.5C372,-518.5 264,-518.5 264,-518.5 258,-518.5 252,-512.5 252,-506.5 252,-506.5 252,-485.5 252,-485.5 252,-479.5 258,-473.5 264,-473.5 264,-473.5 372,-473.5 372,-473.5 378,-473.5 384,-479.5 384,-485.5 384,-485.5 384,-506.5 384,-506.5 384,-512.5 378,-518.5 372,-518.5"/>
<text text-anchor="middle" x="318" y="-504.5" font-family="Helvetica,sans-Serif" font-size="10.00">InSilicoSeq → MEGAHIT</text>
<text text-anchor="middle" x="318" y="-493.5" font-family="Helvetica,sans-Serif" font-size="10.00">+ mock_composition.tsv</text>
<text text-anchor="middle" x="318" y="-482.5" font-family="Helvetica,sans-Serif" font-size="10.00">(gold standard)</text>
</g>
<!-- unev&#45;&gt;asm -->
<g id="edge5" class="edge">
<title>unev&#45;&gt;asm</title>
<path fill="none" stroke="#7a8f9b" stroke-width="1.1" d="M371.83,-560.92C362.45,-549.79 350.91,-536.08 340.92,-524.22"/>
<polygon fill="#7a8f9b" stroke="#7a8f9b" stroke-width="1.1" points="342.55,-522.34 336.16,-518.57 338.8,-525.5 342.55,-522.34"/>
</g>
<!-- eqcov&#45;&gt;asm -->
<g id="edge6" class="edge">
<title>eqcov&#45;&gt;asm</title>
<path fill="none" stroke="#7a8f9b" stroke-width="1.1" d="M157.25,-560.92C187.68,-548.82 225.72,-533.7 257.16,-521.19"/>
<polygon fill="#7a8f9b" stroke="#7a8f9b" stroke-width="1.1" points="258.16,-523.43 263.76,-518.57 256.35,-518.88 258.16,-523.43"/>
</g>
<!-- mmock&#45;&gt;asm -->
<g id="edge7" class="edge">
<title>mmock&#45;&gt;asm</title>
<path fill="none" stroke="#7a8f9b" stroke-width="1.1" d="M267.16,-560.92C276.02,-549.79 286.92,-536.08 296.35,-524.22"/>
<polygon fill="#7a8f9b" stroke="#7a8f9b" stroke-width="1.1" points="298.41,-525.57 300.85,-518.57 294.57,-522.52 298.41,-525.57"/>
</g>
<!-- krak -->
<g id="node12" class="node">
<title>krak</title>
<path fill="#eef4f7" stroke="#9db8c6" stroke-width="1.1" d="M527,-404C527,-404 425,-404 425,-404 419,-404 413,-398 413,-392 413,-392 413,-371 413,-371 413,-365 419,-359 425,-359 425,-359 527,-359 527,-359 533,-359 539,-365 539,-371 539,-371 539,-392 539,-392 539,-398 533,-404 527,-404"/>
<text text-anchor="middle" x="476" y="-390" font-family="Helvetica,sans-Serif" font-size="10.00">Kraken2 + Bracken</text>
<text text-anchor="middle" x="476" y="-379" font-family="Helvetica,sans-Serif" font-size="10.00">standard · 16 GB · 8 GB</text>
<text text-anchor="middle" x="476" y="-368" font-family="Helvetica,sans-Serif" font-size="10.00">reads</text>
</g>
<!-- asm&#45;&gt;krak -->
<g id="edge18" class="edge">
<title>asm&#45;&gt;krak</title>
<path fill="none" stroke="#7a8f9b" stroke-width="1.1" d="M348.46,-473.31C363.45,-462.64 382.24,-449.26 400.75,-436.08"/>
<polygon fill="#7a8f9b" stroke="#7a8f9b" stroke-width="1.1" points="402.2,-438.05 406.49,-432 399.36,-434.06 402.2,-438.05"/>
</g>
<!-- zymo -->
<g id="node11" class="node">
<title>zymo</title>
<path fill="#dbe8ee" stroke="#2a6f8f" stroke-width="1.6" d="M683,-524C683,-524 521,-524 521,-524 515,-524 509,-518 509,-512 509,-512 509,-480 509,-480 509,-474 515,-468 521,-468 521,-468 683,-468 683,-468 689,-468 695,-474 695,-480 695,-480 695,-512 695,-512 695,-518 689,-524 683,-524"/>
<text text-anchor="middle" x="602" y="-510" font-family="Helvetica,sans-Serif" font-size="10.00">ZymoBIOMICS (real Illumina)</text>
<text text-anchor="middle" x="602" y="-499" font-family="Helvetica,sans-Serif" font-size="10.00">ERR2984773 even · ERR2935805 log</text>
<text text-anchor="middle" x="602" y="-488" font-family="Helvetica,sans-Serif" font-size="10.00">third&#45;party&#45;defined community</text>
<text text-anchor="middle" x="602" y="-477" font-family="Helvetica,sans-Serif" font-size="10.00">all 8 species in ALL three databases</text>
</g>
<!-- zymo&#45;&gt;krak -->
<g id="edge19" class="edge">
<title>zymo&#45;&gt;krak</title>
<path fill="none" stroke="#7a8f9b" stroke-width="1.1" stroke-dasharray="5,2" d="M586.37,-467.8C579.97,-458.22 571.96,-447.89 563,-440 559.63,-437.04 557.25,-436.15 554.52,-435.11"/>
<polygon fill="#7a8f9b" stroke="#7a8f9b" stroke-width="1.1" points="555.37,-432.8 548,-432 553.27,-437.22 555.37,-432.8"/>
</g>
<!-- res -->
<g id="node16" class="node">
<title>res</title>
<path fill="#dbe8ee" stroke="#9db8c6" stroke-width="1.1" d="M783,-312C783,-312 649,-312 649,-312 643,-312 637,-306 637,-300 637,-300 637,-288 637,-288 637,-282 643,-276 649,-276 649,-276 783,-276 783,-276 789,-276 795,-282 795,-288 795,-288 795,-300 795,-300 795,-306 789,-312 783,-312"/>
<text text-anchor="middle" x="716" y="-297" font-family="Helvetica,sans-Serif" font-size="10.00">summary.csv · db_sizes.csv</text>
<text text-anchor="middle" x="716" y="-286" font-family="Helvetica,sans-Serif" font-size="10.00">peak RSS · wall time · DB size</text>
</g>
<!-- krak&#45;&gt;res -->
<g id="edge8" class="edge">
<title>krak&#45;&gt;res</title>
<path fill="none" stroke="#7a8f9b" stroke-width="1.1" d="M536.56,-358.92C574.87,-345.28 623.98,-327.78 661.13,-314.55"/>
<polygon fill="#7a8f9b" stroke="#7a8f9b" stroke-width="1.1" points="662.16,-316.78 667.93,-312.13 660.51,-312.17 662.16,-316.78"/>
</g>
<!-- harm -->
<g id="node17" class="node">
<title>harm</title>
<path fill="#dbe8ee" stroke="#9db8c6" stroke-width="1.1" d="M1139,-322C1139,-322 993,-322 993,-322 987,-322 981,-316 981,-310 981,-310 981,-278 981,-278 981,-272 987,-266 993,-266 993,-266 1139,-266 1139,-266 1145,-266 1151,-272 1151,-278 1151,-278 1151,-310 1151,-310 1151,-316 1145,-322 1139,-322"/>
<text text-anchor="middle" x="1066" y="-308" font-family="Helvetica,sans-Serif" font-size="10.00">PHASE 4 · profile2cami.py</text>
<text text-anchor="middle" x="1066" y="-297" font-family="Helvetica,sans-Serif" font-size="10.00">every profile → CAMI/BIOBOXES</text>
<text text-anchor="middle" x="1066" y="-286" font-family="Helvetica,sans-Serif" font-size="10.00">ONE pinned NCBI taxonomy</text>
<text text-anchor="middle" x="1066" y="-275" font-family="Helvetica,sans-Serif" font-size="10.00">same SampleID for all</text>
</g>
<!-- krak&#45;&gt;harm -->
<g id="edge21" class="edge">
<title>krak&#45;&gt;harm</title>
<path fill="none" stroke="#7a8f9b" stroke-width="1.1" d="M539.04,-360.88C542.05,-360.19 545.05,-359.56 548,-359 733.7,-323.65 787.76,-357.35 973.87,-322.56"/>
<polygon fill="#7a8f9b" stroke="#7a8f9b" stroke-width="1.1" points="974.41,-324.95 980.83,-321.23 973.49,-320.13 974.41,-324.95"/>
</g>
<!-- mpa -->
<g id="node13" class="node">
<title>mpa</title>
<path fill="#eef4f7" stroke="#9db8c6" stroke-width="1.1" d="M619,-399.5C619,-399.5 569,-399.5 569,-399.5 563,-399.5 557,-393.5 557,-387.5 557,-387.5 557,-375.5 557,-375.5 557,-369.5 563,-363.5 569,-363.5 569,-363.5 619,-363.5 619,-363.5 625,-363.5 631,-369.5 631,-375.5 631,-375.5 631,-387.5 631,-387.5 631,-393.5 625,-399.5 619,-399.5"/>
<text text-anchor="middle" x="594" y="-384.5" font-family="Helvetica,sans-Serif" font-size="10.00">MetaPhlAn4</text>
<text text-anchor="middle" x="594" y="-373.5" font-family="Helvetica,sans-Serif" font-size="10.00">reads</text>
</g>
<!-- mpa&#45;&gt;res -->
<g id="edge9" class="edge">
<title>mpa&#45;&gt;res</title>
<path fill="none" stroke="#7a8f9b" stroke-width="1.1" d="M618.4,-363.4C637.76,-349.83 664.94,-330.78 685.7,-316.23"/>
<polygon fill="#7a8f9b" stroke="#7a8f9b" stroke-width="1.1" points="687.32,-318.09 691.65,-312.07 684.51,-314.08 687.32,-318.09"/>
</g>
<!-- mpa&#45;&gt;harm -->
<g id="edge22" class="edge">
<title>mpa&#45;&gt;harm</title>
<path fill="none" stroke="#7a8f9b" stroke-width="1.1" d="M627.16,-363.4C631.4,-361.69 635.75,-360.16 640,-359 719.68,-337.2 742.89,-350.12 825,-341 890.29,-333.74 909.1,-335.98 973.58,-322.68"/>
<polygon fill="#7a8f9b" stroke="#7a8f9b" stroke-width="1.1" points="974.46,-325 980.81,-321.17 973.46,-320.2 974.46,-325"/>
</g>
<!-- rscr -->
<g id="node14" class="node">
<title>rscr</title>
<path fill="#eef4f7" stroke="#9db8c6" stroke-width="1.1" d="M781,-399.5C781,-399.5 661,-399.5 661,-399.5 655,-399.5 649,-393.5 649,-387.5 649,-387.5 649,-375.5 649,-375.5 649,-369.5 655,-363.5 661,-363.5 661,-363.5 781,-363.5 781,-363.5 787,-363.5 793,-369.5 793,-375.5 793,-375.5 793,-387.5 793,-387.5 793,-393.5 787,-399.5 781,-399.5"/>
<text text-anchor="middle" x="721" y="-384.5" font-family="Helvetica,sans-Serif" font-size="10.00">RaPDTool screen</text>
<text text-anchor="middle" x="721" y="-373.5" font-family="Helvetica,sans-Serif" font-size="10.00">reads — MATCHED INPUT</text>
</g>
<!-- rscr&#45;&gt;res -->
<g id="edge10" class="edge">
<title>rscr&#45;&gt;res</title>
<path fill="none" stroke="#7a8f9b" stroke-width="1.1" d="M719.99,-363.2C719.26,-350.68 718.26,-333.59 717.44,-319.65"/>
<polygon fill="#7a8f9b" stroke="#7a8f9b" stroke-width="1.1" points="719.86,-319.12 717.01,-312.28 714.97,-319.41 719.86,-319.12"/>
</g>
<!-- rscr&#45;&gt;harm -->
<g id="edge23" class="edge">
<title>rscr&#45;&gt;harm</title>
<path fill="none" stroke="#7a8f9b" stroke-width="1.1" d="M784.94,-363.43C791.04,-361.89 797.13,-360.39 803,-359 877.67,-341.28 899.19,-341.68 973.87,-322.78"/>
<polygon fill="#7a8f9b" stroke="#7a8f9b" stroke-width="1.1" points="974.6,-325.12 980.78,-321.02 973.39,-320.37 974.6,-325.12"/>
</g>
<!-- rful -->
<g id="node15" class="node">
<title>rful</title>
<path fill="#eef4f7" stroke="#9db8c6" stroke-width="1.1" d="M952.5,-399.5C952.5,-399.5 823.5,-399.5 823.5,-399.5 817.5,-399.5 811.5,-393.5 811.5,-387.5 811.5,-387.5 811.5,-375.5 811.5,-375.5 811.5,-369.5 817.5,-363.5 823.5,-363.5 823.5,-363.5 952.5,-363.5 952.5,-363.5 958.5,-363.5 964.5,-369.5 964.5,-375.5 964.5,-375.5 964.5,-387.5 964.5,-387.5 964.5,-393.5 958.5,-399.5 952.5,-399.5"/>
<text text-anchor="middle" x="888" y="-384.5" font-family="Helvetica,sans-Serif" font-size="10.00">RaPDTool full</text>
<text text-anchor="middle" x="888" y="-373.5" font-family="Helvetica,sans-Serif" font-size="10.00">assembly — genome recovery</text>
</g>
<!-- rful&#45;&gt;res -->
<g id="edge11" class="edge">
<title>rful&#45;&gt;res</title>
<path fill="none" stroke="#7a8f9b" stroke-width="1.1" d="M853.61,-363.4C825.72,-349.54 786.34,-329.96 756.85,-315.3"/>
<polygon fill="#7a8f9b" stroke="#7a8f9b" stroke-width="1.1" points="757.69,-312.99 750.33,-312.07 755.51,-317.38 757.69,-312.99"/>
</g>
<!-- rful&#45;&gt;harm -->
<g id="edge24" class="edge">
<title>rful&#45;&gt;harm</title>
<path fill="none" stroke="#7a8f9b" stroke-width="1.1" d="M923.59,-363.4C946.32,-352.49 976.43,-338.02 1003.1,-325.21"/>
<polygon fill="#7a8f9b" stroke="#7a8f9b" stroke-width="1.1" points="1004.2,-327.4 1009.44,-322.17 1002.07,-322.99 1004.2,-327.4"/>
</g>
<!-- mico -->
<g id="node20" class="node">
<title>mico</title>
<path fill="#eef4f7" stroke="#9db8c6" stroke-width="1.1" d="M1055.5,-205.5C1055.5,-205.5 932.5,-205.5 932.5,-205.5 926.5,-205.5 920.5,-199.5 920.5,-193.5 920.5,-193.5 920.5,-172.5 920.5,-172.5 920.5,-166.5 926.5,-160.5 932.5,-160.5 932.5,-160.5 1055.5,-160.5 1055.5,-160.5 1061.5,-160.5 1067.5,-166.5 1067.5,-172.5 1067.5,-172.5 1067.5,-193.5 1067.5,-193.5 1067.5,-199.5 1061.5,-205.5 1055.5,-205.5"/>
<text text-anchor="middle" x="994" y="-191.5" font-family="Helvetica,sans-Serif" font-size="10.00">miComplete</text>
<text text-anchor="middle" x="994" y="-180.5" font-family="Helvetica,sans-Serif" font-size="10.00">bin QUALITY</text>
<text text-anchor="middle" x="994" y="-169.5" font-family="Helvetica,sans-Serif" font-size="10.00">(completeness / redundancy)</text>
</g>
<!-- rful&#45;&gt;mico -->
<g id="edge27" class="edge">
<title>rful&#45;&gt;mico</title>
<path fill="none" stroke="#7a8f9b" stroke-width="1.1" d="M964.83,-374.57C1036.48,-367.25 1135.83,-351.92 1160,-322 1175.64,-302.64 1174.63,-286.14 1160,-266 1137.2,-234.61 1111.93,-255.87 1077,-239 1060.25,-230.91 1042.91,-219.9 1028.44,-209.86"/>
<polygon fill="#7a8f9b" stroke="#7a8f9b" stroke-width="1.1" points="1029.56,-207.65 1022.43,-205.62 1026.74,-211.66 1029.56,-207.65"/>
</g>
<!-- fail -->
<g id="node21" class="node">
<title>fail</title>
<path fill="#eef4f7" stroke="#9db8c6" stroke-width="1.1" d="M1208.5,-205.5C1208.5,-205.5 1097.5,-205.5 1097.5,-205.5 1091.5,-205.5 1085.5,-199.5 1085.5,-193.5 1085.5,-193.5 1085.5,-172.5 1085.5,-172.5 1085.5,-166.5 1091.5,-160.5 1097.5,-160.5 1097.5,-160.5 1208.5,-160.5 1208.5,-160.5 1214.5,-160.5 1220.5,-166.5 1220.5,-172.5 1220.5,-172.5 1220.5,-193.5 1220.5,-193.5 1220.5,-199.5 1214.5,-205.5 1208.5,-205.5"/>
<text text-anchor="middle" x="1153" y="-191.5" font-family="Helvetica,sans-Serif" font-size="10.00">Failure mode</text>
<text text-anchor="middle" x="1153" y="-180.5" font-family="Helvetica,sans-Serif" font-size="10.00">abstain or misassign?</text>
<text text-anchor="middle" x="1153" y="-169.5" font-family="Helvetica,sans-Serif" font-size="10.00">Kraken2 = positive control</text>
</g>
<!-- rful&#45;&gt;fail -->
<g id="edge28" class="edge">
<title>rful&#45;&gt;fail</title>
<path fill="none" stroke="#7a8f9b" stroke-width="1.1" d="M964.82,-377.48C1043.68,-372.39 1157.79,-358.69 1179,-322 1198.85,-287.66 1182.97,-241.23 1168.76,-211.95"/>
<polygon fill="#7a8f9b" stroke="#7a8f9b" stroke-width="1.1" points="1170.9,-210.77 1165.58,-205.61 1166.53,-212.97 1170.9,-210.77"/>
</g>
<!-- amber -->
<g id="node22" class="node">
<title>amber</title>
<path fill="#faf3e3" stroke="#b58b00" stroke-width="1.1" stroke-dasharray="5,2" d="M1393,-205.5C1393,-205.5 1251,-205.5 1251,-205.5 1245,-205.5 1239,-199.5 1239,-193.5 1239,-193.5 1239,-172.5 1239,-172.5 1239,-166.5 1245,-160.5 1251,-160.5 1251,-160.5 1393,-160.5 1393,-160.5 1399,-160.5 1405,-166.5 1405,-172.5 1405,-172.5 1405,-193.5 1405,-193.5 1405,-199.5 1399,-205.5 1393,-205.5"/>
<text text-anchor="middle" x="1322" y="-191.5" font-family="Helvetica,sans-Serif" font-size="10.00" fill="#7a5c00">AMBER — bin CORRECTNESS</text>
<text text-anchor="middle" x="1322" y="-180.5" font-family="Helvetica,sans-Serif" font-size="10.00" fill="#7a5c00">NOT RUNNABLE:</text>
<text text-anchor="middle" x="1322" y="-169.5" font-family="Helvetica,sans-Serif" font-size="10.00" fill="#7a5c00">no contig→genome gold standard</text>
</g>
<!-- rful&#45;&gt;amber -->
<g id="edge29" class="edge">
<title>rful&#45;&gt;amber</title>
<path fill="none" stroke="#b58b00" stroke-width="1.1" stroke-dasharray="5,2" d="M964.78,-379.85C1023.24,-377 1104.68,-367.87 1171,-341 1233.29,-315.77 1281.87,-249.9 1305.75,-211.98"/>
<polygon fill="#b58b00" stroke="#b58b00" stroke-width="1.1" points="1308.04,-212.94 1309.65,-205.7 1303.88,-210.36 1308.04,-212.94"/>
<text text-anchor="middle" x="1274" y="-291.8" font-family="Times,serif" font-size="9.00" fill="#7a5c00"> &#160;gap</text>
</g>
<!-- res&#45;&gt;tables -->
<g id="edge20" class="edge">
<title>res&#45;&gt;tables</title>
<path fill="none" stroke="#7a8f9b" stroke-width="1.1" d="M711.21,-275.98C700.65,-234.49 680.23,-126.97 732,-65 745.91,-48.35 794.75,-36.54 838.19,-29.05"/>
<polygon fill="#7a8f9b" stroke="#7a8f9b" stroke-width="1.1" points="838.62,-31.47 845.11,-27.89 837.8,-26.63 838.62,-31.47"/>
</g>
<!-- opal -->
<g id="node18" class="node">
<title>opal</title>
<path fill="#eef4f7" stroke="#9db8c6" stroke-width="1.1" d="M890,-211C890,-211 756,-211 756,-211 750,-211 744,-205 744,-199 744,-199 744,-167 744,-167 744,-161 750,-155 756,-155 756,-155 890,-155 890,-155 896,-155 902,-161 902,-167 902,-167 902,-199 902,-199 902,-205 896,-211 890,-211"/>
<text text-anchor="middle" x="823" y="-197" font-family="Helvetica,sans-Serif" font-size="10.00">OPAL</text>
<text text-anchor="middle" x="823" y="-186" font-family="Helvetica,sans-Serif" font-size="10.00">recall · precision · F1</text>
<text text-anchor="middle" x="823" y="-175" font-family="Helvetica,sans-Serif" font-size="10.00">L1 · Bray–Curtis · UniFrac</text>
<text text-anchor="middle" x="823" y="-164" font-family="Helvetica,sans-Serif" font-size="10.00">+ threshold sweep 0 / 0.1 / 1 %</text>
</g>
<!-- harm&#45;&gt;opal -->
<g id="edge25" class="edge">
<title>harm&#45;&gt;opal</title>
<path fill="none" stroke="#7a8f9b" stroke-width="1.1" d="M980.75,-266.79C958.01,-258.81 933.73,-249.37 912,-239 897.5,-232.08 882.4,-223.37 868.84,-214.94"/>
<polygon fill="#7a8f9b" stroke="#7a8f9b" stroke-width="1.1" points="869.95,-212.75 862.72,-211.1 867.34,-216.9 869.95,-212.75"/>
</g>
<!-- split -->
<g id="node19" class="node">
<title>split</title>
<path fill="#eef4f7" stroke="#9db8c6" stroke-width="1.1" d="M872.5,-118C872.5,-118 773.5,-118 773.5,-118 767.5,-118 761.5,-112 761.5,-106 761.5,-106 761.5,-85 761.5,-85 761.5,-79 767.5,-73 773.5,-73 773.5,-73 872.5,-73 872.5,-73 878.5,-73 884.5,-79 884.5,-85 884.5,-85 884.5,-106 884.5,-106 884.5,-112 878.5,-118 872.5,-118"/>
<text text-anchor="middle" x="823" y="-104" font-family="Helvetica,sans-Serif" font-size="10.00">Detection split</text>
<text text-anchor="middle" x="823" y="-93" font-family="Helvetica,sans-Serif" font-size="10.00">reference vs conflictive</text>
<text text-anchor="middle" x="823" y="-82" font-family="Helvetica,sans-Serif" font-size="10.00">(the central experiment)</text>
</g>
<!-- opal&#45;&gt;split -->
<g id="edge26" class="edge">
<title>opal&#45;&gt;split</title>
<path fill="none" stroke="#7a8f9b" stroke-width="1.1" d="M823,-154.95C823,-145.51 823,-134.89 823,-125.32"/>
<polygon fill="#7a8f9b" stroke="#7a8f9b" stroke-width="1.1" points="825.45,-125.24 823,-118.24 820.55,-125.24 825.45,-125.24"/>
</g>
<!-- opal&#45;&gt;tables -->
<g id="edge30" class="edge">
<title>opal&#45;&gt;tables</title>
<path fill="none" stroke="#7a8f9b" stroke-width="1.1" d="M861.99,-154.83C873.99,-144.61 886.09,-132.02 894,-118 907.07,-94.82 911.32,-64.24 912.61,-43.24"/>
<polygon fill="#7a8f9b" stroke="#7a8f9b" stroke-width="1.1" points="915.06,-43.35 912.96,-36.24 910.16,-43.11 915.06,-43.35"/>
</g>
<!-- split&#45;&gt;tables -->
<g id="edge31" class="edge">
<title>split&#45;&gt;tables</title>
<path fill="none" stroke="#7a8f9b" stroke-width="1.1" d="M849.03,-72.66C860.9,-62.71 874.92,-50.94 886.81,-40.97"/>
<polygon fill="#7a8f9b" stroke="#7a8f9b" stroke-width="1.1" points="888.66,-42.61 892.45,-36.24 885.52,-38.86 888.66,-42.61"/>
</g>
<!-- mico&#45;&gt;tables -->
<g id="edge32" class="edge">
<title>mico&#45;&gt;tables</title>
<path fill="none" stroke="#7a8f9b" stroke-width="1.1" d="M983.24,-160.35C968.06,-129.79 940.43,-74.21 924.73,-42.61"/>
<polygon fill="#7a8f9b" stroke="#7a8f9b" stroke-width="1.1" points="926.88,-41.43 921.57,-36.25 922.49,-43.61 926.88,-41.43"/>
</g>
<!-- fail&#45;&gt;tables -->
<g id="edge33" class="edge">
<title>fail&#45;&gt;tables</title>
<path fill="none" stroke="#7a8f9b" stroke-width="1.1" d="M1121.13,-160.35C1074.88,-128.94 989.71,-71.1 943.97,-40.03"/>
<polygon fill="#7a8f9b" stroke="#7a8f9b" stroke-width="1.1" points="945.22,-37.92 938.05,-36.02 942.47,-41.98 945.22,-37.92"/>
</g>
</g>
</svg>
